<?xml version="1.0" encoding="UTF-8"?>
<svg id="Calque_2" data-name="Calque 2" xmlns="http://www.w3.org/2000/svg" xmlns:xlink="http://www.w3.org/1999/xlink" viewBox="0 0 842.45 594.34">
  <defs>
    <style>
      .cls-1 {
        fill: #dfbc51;
      }

      .cls-2 {
        fill: url(#Nouveau_motif_27);
      }

      .cls-3 {
        fill: #b3deeb;
      }

      .cls-4 {
        fill: none;
      }

      .cls-5 {
        fill: #09111d;
      }

      .cls-6 {
        fill: #c11743;
      }

      .cls-7 {
        fill: #dfbc52;
      }

      .cls-8 {
        fill: #d2ecfc;
      }

      .cls-9 {
        fill: #f3be45;
      }

      .cls-10 {
        fill: #db2340;
      }
    </style>
    <pattern id="Nouveau_motif_27" data-name="Nouveau motif 27" x="0" y="0" width="305.89" height="426.76" patternTransform="translate(430.59 -309.5)" patternUnits="userSpaceOnUse" viewBox="0 0 305.89 426.76">
      <g>
        <rect class="cls-4" y="0" width="305.89" height="426.76"/>
        <g>
          <g>
            <path class="cls-3" d="M313.46,322.6l-7.52,18.44-7.52-18.44,7.52-18.46,7.52,18.46ZM305.94,331.95l3.81-9.36-3.81-9.36-3.81,9.36,3.81,9.36Z"/>
            <path class="cls-10" d="M328.68,322.61l-22.73,38.07-22.74-38.07,22.74-38.11,22.73,38.11ZM305.95,352.99l18.15-30.38-18.15-30.43-18.15,30.43,18.15,30.38Z"/>
            <path class="cls-8" d="M324.09,322.62l-18.15,30.38-18.15-30.38,18.15-30.43,18.15,30.43ZM305.94,346.26l14.12-23.65-14.12-23.68-14.13,23.68,14.13,23.65Z"/>
          </g>
          <g>
            <path class="cls-3" d="M201.16,418.21l18.32,7.8-18.55,7.24-18.34-7.8,18.57-7.24ZM210.39,425.87l-9.3-3.95-9.42,3.67,9.3,3.95,9.42-3.67Z"/>
            <path class="cls-10" d="M201.4,402.99l37.72,23.31-38.41,22.16-37.76-23.32,38.45-22.15ZM231.43,426.18l-30.1-18.61-30.7,17.68,30.15,18.61,30.65-17.68Z"/>
            <path class="cls-8" d="M201.33,407.58l30.1,18.61-30.65,17.68-30.15-18.61,30.7-17.68ZM224.69,426.09l-23.43-14.48-23.89,13.76,23.46,14.49,23.86-13.77Z"/>
          </g>
          <g>
            <path class="cls-5" d="M342.97,462.29c-7.46,7.63-13.74,10.96-23.42,13.12-.97.22-1.76.37-1.59-.62.88-5.38,1.04-8.02,1.02-11.48-.04-7.88-.71-14.56-4.65-21.12-1.87-3.1-8.17-9.8-8.66-9.3,0,0-6.23,3.16-10.23,9.62-5.05,8.15-5.25,17.42-4.4,23.52.64,4.62.75,5.7,2.23,9.42.41,1.03-4.81-.5-5.84-.9-4.51-1.71-13.43-6.38-17.66-10.37-7.47-7-13.58-23.72-13.18-23.41.82.65,9.45,1.53,11.28,1.35,6.07-.6,11.25-1.04,18.06-4,2.09-.89,5.16-3.24,7.9-5.67.25-.22,4.85-3.9,4.71-5.71-.17-2.11-4.58-5.36-5.45-6.02-1.9-1.49-7.13-4.68-15.75-5.71-7.92-.95-13.66-.91-19.7.44-.99.21-3.78,1.79-3.58.81.94-4.59,3.18-8.45,5.35-12.71,3.47-6.84,6.37-9.45,9.62-12.76,3.64-3.68,12.06-9.04,13.99-9.65,0,0,8.19-3.29,11.39-4.09.94-.22-1.36,7.03-1.8,13.45-.47,6.86,1.81,12.07,4.31,16.96.82,1.6,6.01,8.07,10.5,11.86,0,0,.01,0,.02,0,1.89-1.23,2.91-2.16,3.08-2.36,4.15-3.59,5.9-7.57,6.49-8.68,4.4-8.63,4.14-16.36,3.79-20.42-.23-2.56-1.9-6.7-3.64-11.38-.2-.53-.4-1.05-.61-1.56,7.25,1.45,17.93,5.06,26.65,14.06,5.96,6.17,10.57,14.41,13.11,23.5.28,1.02-1.44-.82-2.46-1.05-2.65-.58-4.9-.86-7.98-1.03-5.38-.27-12.09-.83-21.12,3.57,0,0-2.96,1.63-5.89,4.21-.49.43-5.71,5.44-5.76,6.33-.05.79,4.73,5.04,6.7,6.35,3.38,2.25,5.07,3.31,9.32,4.58,9.46,2.87,14.97,2.05,21.38,1.16,1.5-.21,3.91-.32,6.14-.71.94-.17,1.37-.5,1.23.45-1.49,9.91-6.97,17.78-14.93,25.94Z"/>
            <path class="cls-7" d="M347.91,467.49c-9.17,9.39-20.75,15.03-32.8,16.86-1.25.19-2.51.34-3.78.46.24-1.22.46-2.4.66-3.52.41-2.41.71-4.53.82-5.91.75-9.41.48-12.28.24-16.76-.35-6.47-.97-8.79-1.85-11.09-.84-2.19-3.45-6.25-5.81-9.58-.28.37-.56.74-.85,1.11-2.44,3.24-4.79,6.69-5.68,9.02-3.52,9.17-1.69,17.35-.7,21.5,1.58,6.61,4.52,11.76,7.24,15.43-1.7-.02-3.38-.12-5.07-.29-12.63-1.29-24.95-6.7-34.74-16.27s-14.92-20.57-16.82-32.5c-.24-1.57-.43-3.15-.55-4.73.99.43,2.05.87,3.18,1.3,4.16,1.59,9.21,3.03,15.23,3.73,3.77.44,9.16.99,18.29-3.38,1.86-.88,5.26-3.63,8.33-6.24-2.74-2.3-5.64-4.45-7.5-5.07-7.77-2.58-13.12-3.54-20.51-2.7-4.15.47-9.86,1.45-17.02,3.63.09-1.22.22-2.46.39-3.69,1.65-11.91,6.97-23.4,16.02-32.65,10.59-10.84,23.64-15,32.93-16.57,1.39-.24,2.7-.41,3.9-.55-1.03,4.49-1.95,8.48-2.14,10.17-.86,8.3-.69,19.84,2.59,26.24.9,1.76,3.12,5.51,5.41,9.13,3.75-5.5,8.52-13.79,9.2-20.4.81-7.84-2.18-13.97-5.2-20.39-.86-1.85-1.8-3.56-2.72-5.13.31.01.54.01.69.02,1.01.05,2.98.18,5.61.58,7.78,1.2,21.28,4.78,32.04,15.92,7.5,7.75,13.07,18.53,15.47,30.28.34,1.63.6,3.26.81,4.93-1.24-.61-2.56-1.17-3.99-1.71-2.19-.84-4.6-1.56-7.2-2.1-4.47-.92-12.14-2.5-21.03.57-3.16,1.09-8.32,4.51-12.48,7.54,3.52,1.98,7.51,4.09,9.6,4.91,9.41,3.66,17.67,2.99,22.88,2.52,3.17-.3,6.15-.81,8.93-1.51,1.3-.31,2.55-.66,3.75-1.03-.03,1.37-.11,2.73-.24,4.11-1.09,12.01-5.89,23.94-15.54,33.82ZM342.97,462.29c7.97-8.16,13.45-16.03,14.93-25.94.14-.94-.29-.62-1.23-.45-2.24.39-4.64.5-6.14.71-6.42.89-11.92,1.7-21.38-1.16-4.25-1.27-5.95-2.33-9.32-4.58-1.97-1.31-6.76-5.56-6.7-6.35.05-.88,5.27-5.9,5.76-6.33,2.93-2.59,5.89-4.21,5.89-4.21,9.03-4.41,15.73-3.84,21.12-3.57,3.08.17,5.33.45,7.98,1.03,1.02.23,2.74,2.06,2.46,1.05-2.54-9.09-7.15-17.33-13.11-23.5-8.72-9.01-19.4-12.61-26.65-14.06.2.51.41,1.03.61,1.56,1.74,4.69,3.41,8.83,3.64,11.38.35,4.06.61,11.8-3.79,20.42-.59,1.1-2.34,5.08-6.49,8.68-.17.2-1.19,1.13-3.08,2.36,0,0-.01.01-.02,0-4.49-3.79-9.67-10.26-10.5-11.86-2.5-4.89-4.79-10.1-4.31-16.96.44-6.42,2.75-13.67,1.8-13.45-3.19.79-11.39,4.09-11.39,4.09-1.94.61-10.35,5.96-13.99,9.65-3.26,3.31-6.15,5.91-9.62,12.76-2.17,4.25-4.42,8.11-5.35,12.71-.2.98,2.59-.6,3.58-.81,6.04-1.35,11.79-1.39,19.7-.44,8.63,1.03,13.85,4.22,15.75,5.71.86.66,5.27,3.91,5.45,6.02.15,1.81-4.45,5.49-4.71,5.71-2.74,2.44-5.81,4.78-7.9,5.67-6.81,2.95-12,3.39-18.06,4-1.83.18-10.46-.7-11.28-1.35-.4-.31,5.71,16.41,13.18,23.41,4.23,4,13.15,8.66,17.66,10.37,1.04.4,6.25,1.93,5.84.9-1.48-3.72-1.59-4.8-2.23-9.42-.86-6.11-.65-15.37,4.4-23.52,4-6.46,10.23-9.62,10.23-9.62.49-.5,6.79,6.2,8.66,9.3,3.95,6.57,4.62,13.25,4.65,21.12.01,3.46-.15,6.1-1.02,11.48-.17.98.63.83,1.59.62,9.68-2.16,15.96-5.49,23.42-13.12Z"/>
            <path class="cls-6" d="M300.09,487.19c1.78.18,3.56.28,5.29.3l3.03.04-1.81-2.43c-3.42-4.6-5.82-9.71-7.11-15.16-.92-3.86-2.84-11.9.65-21.01.69-1.8,2.49-4.66,5.19-8.3,2.28,3.34,3.98,6.22,4.57,7.75.79,2.08,1.43,4.2,1.78,10.83l.06,1.16c.22,3.94.39,7.06-.31,15.71-.1,1.3-.38,3.33-.81,5.87-.2,1.13-.43,2.33-.67,3.56l-.38,1.96,1.99-.18c1.28-.11,2.6-.27,3.94-.47,13.1-2,24.94-8.08,34.24-17.61,9.39-9.61,15.01-21.84,16.24-35.35.13-1.37.21-2.78.25-4.29l.05-2.09-2,.62c-1.23.38-2.48.73-3.73,1.03-2.89.71-5.87,1.21-8.88,1.49-4.93.45-13.18,1.21-22.62-2.47-1.47-.57-4.2-1.94-7.52-3.76,4.55-3.2,8.2-5.34,10.4-6.1,8.65-2.99,16.13-1.45,20.61-.53,2.46.51,4.86,1.21,7.12,2.08,1.41.54,2.74,1.1,3.93,1.69l2.49,1.22-.34-2.75c-.21-1.71-.5-3.43-.84-5.13-2.48-12.17-8.21-23.38-16.14-31.57-10.79-11.16-24.15-15.21-33.47-16.65-2.03-.31-4.01-.51-5.86-.61h-.12c-.16-.01-.38-.02-.65-.02l-2.67-.03,1.36,2.29c.99,1.67,1.9,3.39,2.7,5.1l.19.4c2.95,6.25,5.74,12.16,4.98,19.57-.63,6.1-5.02,13.77-7.84,18.15-1.84-2.98-3.48-5.78-4.21-7.21-3.16-6.17-3.31-17.8-2.48-25.88.17-1.58,1.08-5.56,2.05-9.77l.57-2.48-2.11.24c-1.47.17-2.79.36-4.05.57-9.54,1.61-23.24,5.92-34.35,17.29-9.15,9.37-14.93,21.16-16.72,34.09-.18,1.28-.32,2.58-.41,3.86l-.16,2.18,2.09-.64c5.97-1.82,11.71-3.05,17.06-3.65,7.65-.86,13.01.28,20.23,2.68.74.25,2.42,1.07,5.78,3.76-3.26,2.72-5.54,4.39-6.78,4.98-9.06,4.33-14.32,3.72-17.81,3.31-5.22-.6-10.17-1.81-15.14-3.71-.96-.36-1.97-.78-3.16-1.3l-2.28-.99.18,2.48c.12,1.65.32,3.32.58,4.94,2.06,12.99,8.13,24.72,17.55,33.93,9.93,9.7,22.48,15.57,36.28,16.98ZM249.87,433.95c5.21,1.98,10.4,3.25,15.86,3.88,3.83.45,9.61,1.13,19.45-3.58,1.69-.81,4.49-2.89,8.81-6.56l1.35-1.15-1.36-1.14c-3.56-2.99-6.29-4.82-8.13-5.45-7.45-2.48-13.36-3.74-21.52-2.82-4.89.55-10.08,1.6-15.47,3.13.06-.5.12-1,.19-1.49,1.7-12.3,7.2-23.5,15.89-32.41,10.55-10.8,23.61-14.9,32.71-16.43.58-.1,1.16-.19,1.78-.28-.86,3.76-1.56,6.9-1.73,8.44-.91,8.9-.66,20.81,2.8,27.56.93,1.81,3.22,5.69,5.58,9.42l1.22,1.93,1.29-1.89c3.26-4.78,8.84-13.92,9.62-21.46.85-8.24-2.25-14.81-5.25-21.16l-.19-.4c-.46-.98-.95-1.95-1.47-2.92,1.15.1,2.33.25,3.53.43,8.86,1.37,21.57,5.21,31.77,15.77,7.53,7.79,12.99,18.47,15.36,30.09.15.74.29,1.48.41,2.22-.53-.22-1.08-.44-1.64-.65-2.41-.92-4.96-1.66-7.6-2.21-4.77-.98-12.75-2.62-22.18.63-3.56,1.23-9.09,4.97-13.11,7.89l-1.89,1.37,2.04,1.15c2.09,1.18,7.25,4.03,9.97,5.09,10.1,3.93,19.13,3.1,23.98,2.66,3.15-.29,6.29-.82,9.31-1.56.62-.15,1.25-.31,1.88-.49-.04.69-.09,1.36-.15,2.02-1.17,12.82-6.49,24.41-15.4,33.53-8.84,9.05-20.1,14.84-32.54,16.74-.6.09-1.19.17-1.77.24.1-.55.2-1.09.3-1.62.31-1.84.71-4.4.85-6.15.71-8.85.53-12.06.31-16.11l-.06-1.15c-.34-6.41-.96-9.07-1.98-11.74-1.15-3-4.95-8.48-6.09-10.09l-1.19-1.68-2.11,2.77c-3.13,4.16-5.14,7.37-5.98,9.54-3.83,9.97-1.69,18.95-.77,22.78,1.16,4.88,3.13,9.49,5.88,13.75-.69-.04-1.38-.1-2.07-.17-13.11-1.34-25.04-6.92-34.48-16.14-8.96-8.75-14.73-19.91-16.69-32.26-.12-.73-.22-1.48-.31-2.22.33.13.65.26.97.38Z"/>
            <path class="cls-1" d="M299.9,432.47l8.54-3.03c.29-.1.52-.34.62-.63l2.83-8.61c.24-.73-.57-1.51-1.28-1.25l-8.54,3.04c-.29.1-.52.34-.62.63l-2.83,8.6c-.12.36-.02.76.25,1.03s.67.35,1.03.23ZM309.34,421.52l-2.04,6.21-6.15,2.18,2.04-6.2,6.16-2.19Z"/>
            <path class="cls-7" d="M292.65,413.33c-.99.99-1.7.41-4.33-1.06-1.99-1.1-5.42-2.48-8.71-2.92-8.02-1.06-10.66-.28-13.88.28-1.4.24-5.93,1.99-5.8,1.11q.33-2.07,1.64-5.12c.78-1.81,2.61-5.22,4.91-7.7,7.17-7.77,9.29-9.87,13.79-12.93,3.26-2.22,7.48-3.77,9.91-4.71.86-.34.03,1.03-.55,2.79-.58,1.8-.72,4.46-.94,7.37-.67,8.53,1.27,12.58,2.24,16.67.34,1.45,2.42,5.51,1.71,6.2ZM287.63,407.73c.41-.42-.84-2.86-1.04-3.73-.57-2.46-1.75-4.91-1.35-10.04.13-1.76.22-3.35.57-4.43.34-1.06.85-1.88.33-1.68-1.46.57-4,1.49-5.96,2.83-2.71,1.85-3.99,3.11-8.3,7.78-1.38,1.5-2.48,3.56-2.95,4.64q-.79,1.84-.99,3.09c-.09.52,2.65-.53,3.49-.68,1.94-.34,3.53-.81,8.36-.17,1.98.26,4.04,1.08,5.24,1.75,1.59.89,2.01,1.24,2.62.64Z"/>
          </g>
        </g>
        <g>
          <g>
            <path class="cls-3" d="M7.57,322.6L.05,341.04l-7.52-18.44L.05,304.14l7.52,18.46ZM.05,331.95l3.81-9.36L.05,313.23l-3.81,9.36L.05,331.95Z"/>
            <path class="cls-10" d="M22.79,322.61L.06,360.68l-22.74-38.07L.06,284.5l22.73,38.11ZM.06,352.99l18.15-30.38L.06,292.18l-18.15,30.43L.06,352.99Z"/>
            <path class="cls-8" d="M18.2,322.62L.05,353l-18.15-30.38L.05,292.19l18.15,30.43ZM.05,346.26l14.12-23.65L.05,298.93l-14.13,23.68L.05,346.26Z"/>
          </g>
          <g>
            <path class="cls-3" d="M104.81,432.88l-18.4-7.61,18.48-7.43,18.42,7.61-18.5,7.43ZM95.5,425.32l9.34,3.85,9.38-3.77-9.34-3.85-9.38,3.77Z"/>
            <path class="cls-10" d="M104.73,448.1l-37.96-22.91,38.18-22.56,38,22.92-38.22,22.55ZM74.46,425.23l30.29,18.29,30.51-18.01-30.34-18.29-30.46,18.01Z"/>
            <path class="cls-8" d="M104.75,443.51l-30.29-18.29,30.46-18.01,30.34,18.29-30.51,18.01ZM81.19,425.25l23.58,14.23,23.75-14.01-23.61-14.24-23.72,14.02Z"/>
          </g>
          <g>
            <path class="cls-5" d="M37.08,462.29c-7.46,7.63-13.74,10.96-23.42,13.12-.97.22-1.76.37-1.59-.62.88-5.38,1.04-8.02,1.02-11.48-.04-7.88-.71-14.56-4.65-21.12-1.87-3.1-8.17-9.8-8.66-9.3,0,0-6.23,3.16-10.23,9.62-5.05,8.15-5.25,17.42-4.4,23.52.64,4.62.75,5.7,2.23,9.42.41,1.03-4.81-.5-5.84-.9-4.51-1.71-13.43-6.38-17.66-10.37-7.47-7-13.58-23.72-13.18-23.41.82.65,9.45,1.53,11.28,1.35,6.07-.6,11.25-1.04,18.06-4,2.09-.89,5.16-3.24,7.9-5.67.25-.22,4.85-3.9,4.71-5.71-.17-2.11-4.58-5.36-5.45-6.02-1.9-1.49-7.13-4.68-15.75-5.71-7.92-.95-13.66-.91-19.7.44-.99.21-3.78,1.79-3.58.81.94-4.59,3.18-8.45,5.35-12.71,3.47-6.84,6.37-9.45,9.62-12.76,3.64-3.68,12.06-9.04,13.99-9.65,0,0,8.19-3.29,11.39-4.09.94-.22-1.36,7.03-1.8,13.45-.47,6.86,1.81,12.07,4.31,16.96.82,1.6,6.01,8.07,10.5,11.86,0,0,.01,0,.02,0,1.89-1.23,2.91-2.16,3.08-2.36,4.15-3.59,5.9-7.57,6.49-8.68,4.4-8.63,4.14-16.36,3.79-20.42-.23-2.56-1.9-6.7-3.64-11.38-.2-.53-.4-1.05-.61-1.56,7.25,1.45,17.93,5.06,26.65,14.06,5.96,6.17,10.57,14.41,13.11,23.5.28,1.02-1.44-.82-2.46-1.05-2.65-.58-4.9-.86-7.98-1.03-5.38-.27-12.09-.83-21.12,3.57,0,0-2.96,1.63-5.89,4.21-.49.43-5.71,5.44-5.76,6.33-.05.79,4.73,5.04,6.7,6.35,3.38,2.25,5.07,3.31,9.32,4.58,9.46,2.87,14.97,2.05,21.38,1.16,1.5-.21,3.91-.32,6.14-.71.94-.17,1.37-.5,1.23.45-1.49,9.91-6.97,17.78-14.93,25.94Z"/>
            <path class="cls-7" d="M42.02,467.49c-9.17,9.39-20.75,15.03-32.8,16.86-1.25.19-2.51.34-3.78.46.24-1.22.46-2.4.66-3.52.41-2.41.71-4.53.82-5.91.75-9.41.48-12.28.24-16.76-.35-6.47-.97-8.79-1.85-11.09-.84-2.19-3.45-6.25-5.81-9.58-.28.37-.56.74-.85,1.11-2.44,3.24-4.79,6.69-5.68,9.02-3.52,9.17-1.69,17.35-.7,21.5,1.58,6.61,4.52,11.76,7.24,15.43-1.7-.02-3.38-.12-5.07-.29-12.63-1.29-24.95-6.7-34.74-16.27s-14.92-20.57-16.82-32.5c-.24-1.57-.43-3.15-.55-4.73.99.43,2.05.87,3.18,1.3,4.16,1.59,9.21,3.03,15.23,3.73,3.77.44,9.16.99,18.29-3.38,1.86-.88,5.26-3.63,8.33-6.24-2.74-2.3-5.64-4.45-7.5-5.07-7.77-2.58-13.12-3.54-20.51-2.7-4.15.47-9.86,1.45-17.02,3.63.09-1.22.22-2.46.39-3.69,1.65-11.91,6.97-23.4,16.02-32.65,10.59-10.84,23.64-15,32.93-16.57,1.39-.24,2.7-.41,3.9-.55-1.03,4.49-1.95,8.48-2.14,10.17-.86,8.3-.69,19.84,2.59,26.24.9,1.76,3.12,5.51,5.41,9.13,3.75-5.5,8.52-13.79,9.2-20.4.81-7.84-2.18-13.97-5.2-20.39-.86-1.85-1.8-3.56-2.72-5.13.31.01.54.01.69.02,1.01.05,2.98.18,5.61.58,7.78,1.2,21.28,4.78,32.04,15.92,7.5,7.75,13.07,18.53,15.47,30.28.34,1.63.6,3.26.81,4.93-1.24-.61-2.56-1.17-3.99-1.71-2.19-.84-4.6-1.56-7.2-2.1-4.47-.92-12.14-2.5-21.03.57-3.16,1.09-8.32,4.51-12.48,7.54,3.52,1.98,7.51,4.09,9.6,4.91,9.41,3.66,17.67,2.99,22.88,2.52,3.17-.3,6.15-.81,8.93-1.51,1.3-.31,2.55-.66,3.75-1.03-.03,1.37-.11,2.73-.24,4.11-1.09,12.01-5.89,23.94-15.54,33.82ZM37.08,462.29c7.97-8.16,13.45-16.03,14.93-25.94.14-.94-.29-.62-1.23-.45-2.24.39-4.64.5-6.14.71-6.42.89-11.92,1.7-21.38-1.16-4.25-1.27-5.95-2.33-9.32-4.58-1.97-1.31-6.76-5.56-6.7-6.35.05-.88,5.27-5.9,5.76-6.33,2.93-2.59,5.89-4.21,5.89-4.21,9.03-4.41,15.73-3.84,21.12-3.57,3.08.17,5.33.45,7.98,1.03,1.02.23,2.74,2.06,2.46,1.05-2.54-9.09-7.15-17.33-13.11-23.5-8.72-9.01-19.4-12.61-26.65-14.06.2.51.41,1.03.61,1.56,1.74,4.69,3.41,8.83,3.64,11.38.35,4.06.61,11.8-3.79,20.42-.59,1.1-2.34,5.08-6.49,8.68-.17.2-1.19,1.13-3.08,2.36,0,0-.01.01-.02,0-4.49-3.79-9.67-10.26-10.5-11.86-2.5-4.89-4.79-10.1-4.31-16.96.44-6.42,2.75-13.67,1.8-13.45-3.19.79-11.39,4.09-11.39,4.09-1.94.61-10.35,5.96-13.99,9.65-3.26,3.31-6.15,5.91-9.62,12.76-2.17,4.25-4.42,8.11-5.35,12.71-.2.98,2.59-.6,3.58-.81,6.04-1.35,11.79-1.39,19.7-.44,8.63,1.03,13.85,4.22,15.75,5.71.86.66,5.27,3.91,5.45,6.02.15,1.81-4.45,5.49-4.71,5.71-2.74,2.44-5.81,4.78-7.9,5.67-6.81,2.95-12,3.39-18.06,4-1.83.18-10.46-.7-11.28-1.35-.4-.31,5.71,16.41,13.18,23.41,4.23,4,13.15,8.66,17.66,10.37,1.04.4,6.25,1.93,5.84.9-1.48-3.72-1.59-4.8-2.23-9.42-.86-6.11-.65-15.37,4.4-23.52,4-6.46,10.23-9.62,10.23-9.62.49-.5,6.79,6.2,8.66,9.3,3.95,6.57,4.62,13.25,4.65,21.12.01,3.46-.15,6.1-1.02,11.48-.17.98.63.83,1.59.62,9.68-2.16,15.96-5.49,23.42-13.12Z"/>
            <path class="cls-6" d="M-5.81,487.19c1.78.18,3.56.28,5.29.3l3.03.04-1.81-2.43c-3.42-4.6-5.82-9.71-7.11-15.16-.92-3.86-2.84-11.9.65-21.01.69-1.8,2.49-4.66,5.19-8.3,2.28,3.34,3.98,6.22,4.57,7.75.79,2.08,1.43,4.2,1.78,10.83l.06,1.16c.22,3.94.39,7.06-.31,15.71-.1,1.3-.38,3.33-.81,5.87-.2,1.13-.43,2.33-.67,3.56l-.38,1.96,1.99-.18c1.28-.11,2.6-.27,3.94-.47,13.1-2,24.94-8.08,34.24-17.61,9.39-9.61,15.01-21.84,16.24-35.35.13-1.37.21-2.78.25-4.29l.05-2.09-2,.62c-1.23.38-2.48.73-3.73,1.03-2.89.71-5.87,1.21-8.88,1.49-4.93.45-13.18,1.21-22.62-2.47-1.47-.57-4.2-1.94-7.52-3.76,4.55-3.2,8.2-5.34,10.4-6.1,8.65-2.99,16.13-1.45,20.61-.53,2.46.51,4.86,1.21,7.12,2.08,1.41.54,2.74,1.1,3.93,1.69l2.49,1.22-.34-2.75c-.21-1.71-.5-3.43-.84-5.13-2.48-12.17-8.21-23.38-16.14-31.57-10.79-11.16-24.15-15.21-33.47-16.65-2.03-.31-4.01-.51-5.86-.61h-.12c-.16-.01-.38-.02-.65-.02l-2.67-.03,1.36,2.29c.99,1.67,1.9,3.39,2.7,5.1l.19.4c2.95,6.25,5.74,12.16,4.98,19.57-.63,6.1-5.02,13.77-7.84,18.15-1.84-2.98-3.48-5.78-4.21-7.21-3.16-6.17-3.31-17.8-2.48-25.88.17-1.58,1.08-5.56,2.05-9.77l.57-2.48-2.11.24c-1.47.17-2.79.36-4.05.57-9.54,1.61-23.24,5.92-34.35,17.29-9.15,9.37-14.93,21.16-16.72,34.09-.18,1.28-.32,2.58-.41,3.86l-.16,2.18,2.09-.64c5.97-1.82,11.71-3.05,17.06-3.65,7.65-.86,13.01.28,20.23,2.68.74.25,2.42,1.07,5.78,3.76-3.26,2.72-5.54,4.39-6.78,4.98-9.06,4.33-14.32,3.72-17.81,3.31-5.22-.6-10.17-1.81-15.14-3.71-.96-.36-1.97-.78-3.16-1.3l-2.28-.99.18,2.48c.12,1.65.32,3.32.58,4.94,2.06,12.99,8.13,24.72,17.55,33.93,9.93,9.7,22.48,15.57,36.28,16.98ZM-56.02,433.95c5.21,1.98,10.4,3.25,15.86,3.88,3.83.45,9.61,1.13,19.45-3.58,1.69-.81,4.49-2.89,8.81-6.56l1.35-1.15-1.36-1.14c-3.56-2.99-6.29-4.82-8.13-5.45-7.45-2.48-13.36-3.74-21.52-2.82-4.89.55-10.08,1.6-15.47,3.13.06-.5.12-1,.19-1.49,1.7-12.3,7.2-23.5,15.89-32.41,10.55-10.8,23.61-14.9,32.71-16.43.58-.1,1.16-.19,1.78-.28-.86,3.76-1.56,6.9-1.73,8.44-.91,8.9-.66,20.81,2.8,27.56.93,1.81,3.22,5.69,5.58,9.42l1.22,1.93,1.29-1.89c3.26-4.78,8.84-13.92,9.62-21.46.85-8.24-2.25-14.81-5.25-21.16l-.19-.4c-.46-.98-.95-1.95-1.47-2.92,1.15.1,2.33.25,3.53.43,8.86,1.37,21.57,5.21,31.77,15.77,7.53,7.79,12.99,18.47,15.36,30.09.15.74.29,1.48.41,2.22-.53-.22-1.08-.44-1.64-.65-2.41-.92-4.96-1.66-7.6-2.21-4.77-.98-12.75-2.62-22.18.63-3.56,1.23-9.09,4.97-13.11,7.89l-1.89,1.37,2.04,1.15c2.09,1.18,7.25,4.03,9.97,5.09,10.1,3.93,19.13,3.1,23.98,2.66,3.15-.29,6.29-.82,9.31-1.56.62-.15,1.25-.31,1.88-.49-.04.69-.09,1.36-.15,2.02-1.17,12.82-6.49,24.41-15.4,33.53-8.84,9.05-20.1,14.84-32.54,16.74-.6.09-1.19.17-1.77.24.1-.55.2-1.09.3-1.62.31-1.84.71-4.4.85-6.15.71-8.85.53-12.06.31-16.11l-.06-1.15c-.34-6.41-.96-9.07-1.98-11.74-1.15-3-4.95-8.48-6.09-10.09l-1.19-1.68-2.11,2.77c-3.13,4.16-5.14,7.37-5.98,9.54-3.83,9.97-1.69,18.95-.77,22.78,1.16,4.88,3.13,9.49,5.88,13.75-.69-.04-1.38-.1-2.07-.17-13.11-1.34-25.04-6.92-34.48-16.14-8.96-8.75-14.73-19.91-16.69-32.26-.12-.73-.22-1.48-.31-2.22.33.13.65.26.97.38Z"/>
            <path class="cls-1" d="M-6,432.47l8.54-3.03c.29-.1.52-.34.62-.63l2.83-8.61c.24-.73-.57-1.51-1.28-1.25l-8.54,3.04c-.29.1-.52.34-.62.63l-2.83,8.6c-.12.36-.02.76.25,1.03s.67.35,1.03.23ZM3.45,421.52l-2.04,6.21-6.15,2.18,2.04-6.2,6.16-2.19Z"/>
            <path class="cls-9" d="M44.15,406.7c-1.72-.51-4.27-.58-7.07-.72-8.15-.44-11.98,1.52-15.85,2.53-1.37.36-5.2,2.44-5.88,1.79-.97-.93-.43-1.61.91-4.16,1-1.93,2.24-5.23,2.58-8.38.81-7.68,0-10.18-.61-13.24-.26-1.33-2.05-5.62-1.21-5.52q1.99.27,4.94,1.46c1.73.7,5.04,2.37,7.46,4.49,7.6,6.66,9.64,8.63,12.68,12.86,2.19,3.06,3.77,7.05,4.73,9.34.34.82-.99.05-2.68-.45ZM39.51,403.47c-.58-1.38-1.52-3.78-2.85-5.62-1.82-2.55-3.06-3.73-7.62-7.74-1.46-1.28-3.46-2.29-4.5-2.71q-1.78-.71-2.97-.87c-.5-.07.57,2.51.72,3.31.38,1.85.85,3.35.37,7.98-.2,1.9-.95,3.88-1.55,5.04-.8,1.54-1.12,1.95-.55,2.51.41.39,2.72-.87,3.54-1.08,2.33-.61,4.64-1.79,9.54-1.53,1.68.09,3.21.13,4.26.44,1.01.31,1.81.76,1.61.27Z"/>
          </g>
        </g>
        <g>
          <g>
            <path class="cls-3" d="M160.52,109.23l-7.52,18.44-7.52-18.44,7.52-18.46,7.52,18.46ZM153,118.58l3.81-9.36-3.81-9.36-3.81,9.36,3.81,9.36Z"/>
            <path class="cls-10" d="M175.73,109.24l-22.73,38.07-22.74-38.07,22.74-38.11,22.73,38.11ZM153,139.62l18.15-30.38-18.15-30.43-18.15,30.43,18.15,30.38Z"/>
            <path class="cls-8" d="M171.15,109.24l-18.15,30.38-18.15-30.38,18.15-30.43,18.15,30.43ZM153,132.88l14.12-23.65-14.12-23.68-14.13,23.68,14.13,23.65Z"/>
          </g>
          <g>
            <path class="cls-3" d="M257.76,219.51l-18.4-7.61,18.48-7.43,18.42,7.61-18.5,7.43ZM248.44,211.94l9.34,3.85,9.38-3.77-9.34-3.85-9.38,3.77Z"/>
            <path class="cls-10" d="M257.68,234.72l-37.96-22.91,38.18-22.56,38,22.92-38.22,22.55ZM227.4,211.85l30.29,18.29,30.51-18.01-30.34-18.29-30.46,18.01Z"/>
            <path class="cls-8" d="M257.69,230.13l-30.29-18.29,30.46-18.01,30.34,18.29-30.51,18.01ZM234.14,211.87l23.58,14.23,23.75-14.01-23.61-14.24-23.72,14.02Z"/>
          </g>
          <g>
            <path class="cls-3" d="M48.21,204.83l18.32,7.8-18.55,7.24-18.34-7.8,18.57-7.24ZM57.44,212.49l-9.3-3.95-9.42,3.67,9.3,3.95,9.42-3.67Z"/>
            <path class="cls-10" d="M48.45,189.61l37.72,23.31-38.41,22.16-37.76-23.32,38.45-22.15ZM78.48,212.81l-30.1-18.61-30.7,17.68,30.15,18.61,30.65-17.68Z"/>
            <path class="cls-8" d="M48.39,194.2l30.1,18.61-30.65,17.68-30.15-18.61,30.7-17.68ZM71.75,212.71l-23.43-14.48-23.89,13.76,23.46,14.49,23.86-13.77Z"/>
          </g>
          <g>
            <path class="cls-3" d="M163.24,317.55l-7.52,18.44-7.52-18.44,7.52-18.46,7.52,18.46ZM155.72,326.9l3.81-9.36-3.81-9.36-3.81,9.36,3.81,9.36Z"/>
            <path class="cls-10" d="M178.45,317.56l-22.73,38.07-22.74-38.07,22.74-38.11,22.73,38.11ZM155.72,347.94l18.15-30.38-18.15-30.43-18.15,30.43,18.15,30.38Z"/>
            <path class="cls-8" d="M173.87,317.56l-18.15,30.38-18.15-30.38,18.15-30.43,18.15,30.43ZM155.72,341.2l14.12-23.65-14.12-23.68-14.13,23.68,14.13,23.65Z"/>
          </g>
          <g>
            <path class="cls-5" d="M190.03,248.91c-7.46,7.63-13.74,10.96-23.42,13.12-.97.22-1.76.37-1.59-.62.88-5.38,1.04-8.02,1.02-11.48-.04-7.88-.71-14.56-4.65-21.12-1.87-3.1-8.17-9.8-8.66-9.3,0,0-6.23,3.16-10.23,9.62-5.05,8.15-5.25,17.42-4.4,23.52.64,4.62.75,5.7,2.23,9.42.41,1.03-4.81-.5-5.84-.9-4.51-1.71-13.43-6.38-17.66-10.37-7.47-7-13.58-23.72-13.18-23.41.82.65,9.45,1.53,11.28,1.35,6.07-.6,11.25-1.04,18.06-4,2.09-.89,5.16-3.24,7.9-5.67.25-.22,4.85-3.9,4.71-5.71-.17-2.11-4.58-5.36-5.45-6.02-1.9-1.49-7.13-4.68-15.75-5.71-7.92-.95-13.66-.91-19.7.44-.99.21-3.78,1.79-3.58.81.94-4.59,3.18-8.45,5.35-12.71,3.47-6.84,6.37-9.45,9.62-12.76,3.64-3.68,12.06-9.04,13.99-9.65,0,0,8.19-3.29,11.39-4.09.94-.22-1.36,7.03-1.8,13.45-.47,6.86,1.81,12.07,4.31,16.96.82,1.6,6.01,8.07,10.5,11.86,0,0,.01,0,.02,0,1.89-1.23,2.91-2.16,3.08-2.36,4.15-3.59,5.9-7.57,6.49-8.68,4.4-8.63,4.14-16.36,3.79-20.42-.23-2.56-1.9-6.7-3.64-11.38-.2-.53-.4-1.05-.61-1.56,7.25,1.45,17.93,5.06,26.65,14.06,5.96,6.17,10.57,14.41,13.11,23.5.28,1.02-1.44-.82-2.46-1.05-2.65-.58-4.9-.86-7.98-1.03-5.38-.27-12.09-.83-21.12,3.57,0,0-2.96,1.63-5.89,4.21-.49.43-5.71,5.44-5.76,6.33-.05.79,4.73,5.04,6.7,6.35,3.38,2.25,5.07,3.31,9.32,4.58,9.46,2.87,14.97,2.05,21.38,1.16,1.5-.21,3.91-.32,6.14-.71.94-.17,1.37-.5,1.23.45-1.49,9.91-6.97,17.78-14.93,25.94Z"/>
            <path class="cls-7" d="M194.97,254.12c-9.17,9.39-20.75,15.03-32.8,16.86-1.25.19-2.51.34-3.78.46.24-1.22.46-2.4.66-3.52.41-2.41.71-4.53.82-5.91.75-9.41.48-12.28.24-16.76-.35-6.47-.97-8.79-1.85-11.09-.84-2.19-3.45-6.25-5.81-9.58-.28.37-.56.74-.85,1.11-2.44,3.24-4.79,6.69-5.68,9.02-3.52,9.17-1.69,17.35-.7,21.5,1.58,6.61,4.52,11.76,7.24,15.43-1.7-.02-3.38-.12-5.07-.29-12.63-1.29-24.95-6.7-34.74-16.27-9.31-9.1-14.92-20.57-16.82-32.5-.24-1.57-.43-3.15-.55-4.73.99.43,2.05.87,3.18,1.3,4.16,1.59,9.21,3.03,15.23,3.73,3.77.44,9.16.99,18.29-3.38,1.86-.88,5.26-3.63,8.33-6.24-2.74-2.3-5.64-4.45-7.5-5.07-7.77-2.58-13.12-3.54-20.51-2.7-4.15.47-9.86,1.45-17.02,3.63.09-1.22.22-2.46.39-3.69,1.65-11.91,6.97-23.4,16.02-32.65,10.59-10.84,23.64-15,32.93-16.57,1.39-.24,2.7-.41,3.9-.55-1.03,4.49-1.95,8.48-2.14,10.17-.86,8.3-.69,19.84,2.59,26.24.9,1.76,3.12,5.51,5.41,9.13,3.75-5.5,8.52-13.79,9.2-20.4.81-7.84-2.18-13.97-5.2-20.39-.86-1.85-1.8-3.56-2.72-5.13.31.01.54.01.69.02,1.01.05,2.98.18,5.61.58,7.78,1.2,21.28,4.78,32.04,15.92,7.5,7.75,13.07,18.53,15.47,30.28.34,1.63.6,3.26.81,4.93-1.24-.61-2.56-1.17-3.99-1.71-2.19-.84-4.6-1.56-7.2-2.1-4.47-.92-12.14-2.5-21.03.57-3.16,1.09-8.32,4.51-12.48,7.54,3.52,1.98,7.51,4.09,9.6,4.91,9.41,3.66,17.67,2.99,22.88,2.52,3.17-.3,6.15-.81,8.93-1.51,1.3-.31,2.55-.66,3.75-1.03-.03,1.37-.11,2.73-.24,4.11-1.09,12.01-5.89,23.94-15.54,33.82ZM190.03,248.91c7.97-8.16,13.45-16.03,14.93-25.94.14-.94-.29-.62-1.23-.45-2.24.39-4.64.5-6.14.71-6.42.89-11.92,1.7-21.38-1.16-4.25-1.27-5.95-2.33-9.32-4.58-1.97-1.31-6.76-5.56-6.7-6.35.05-.88,5.27-5.9,5.76-6.33,2.93-2.59,5.89-4.21,5.89-4.21,9.03-4.41,15.73-3.84,21.12-3.57,3.08.17,5.33.45,7.98,1.03,1.02.23,2.74,2.06,2.46,1.05-2.54-9.09-7.15-17.33-13.11-23.5-8.72-9.01-19.4-12.61-26.65-14.06.2.51.41,1.03.61,1.56,1.74,4.69,3.41,8.83,3.64,11.38.35,4.06.61,11.8-3.79,20.42-.59,1.1-2.34,5.08-6.49,8.68-.17.2-1.19,1.13-3.08,2.36,0,0-.01.01-.02,0-4.49-3.79-9.67-10.26-10.5-11.86-2.5-4.89-4.79-10.1-4.31-16.96.44-6.42,2.75-13.67,1.8-13.45-3.19.79-11.39,4.09-11.39,4.09-1.94.61-10.35,5.96-13.99,9.65-3.26,3.31-6.15,5.91-9.62,12.76-2.17,4.25-4.42,8.11-5.35,12.71-.2.98,2.59-.6,3.58-.81,6.04-1.35,11.79-1.39,19.7-.44,8.63,1.03,13.85,4.22,15.75,5.71.86.66,5.27,3.91,5.45,6.02.15,1.81-4.45,5.49-4.71,5.71-2.74,2.44-5.81,4.78-7.9,5.67-6.81,2.95-12,3.39-18.06,4-1.83.18-10.46-.7-11.28-1.35-.4-.31,5.71,16.41,13.18,23.41,4.23,4,13.15,8.66,17.66,10.37,1.04.4,6.25,1.93,5.84.9-1.48-3.72-1.59-4.8-2.23-9.42-.86-6.11-.65-15.37,4.4-23.52,4-6.46,10.23-9.62,10.23-9.62.49-.5,6.79,6.2,8.66,9.3,3.95,6.57,4.62,13.25,4.65,21.12.01,3.46-.15,6.1-1.02,11.48-.17.98.63.83,1.59.62,9.68-2.16,15.96-5.49,23.42-13.12Z"/>
            <path class="cls-6" d="M147.14,273.81c1.78.18,3.56.28,5.29.3l3.03.04-1.81-2.43c-3.42-4.6-5.82-9.71-7.11-15.16-.92-3.86-2.84-11.9.65-21.01.69-1.8,2.49-4.66,5.19-8.3,2.28,3.34,3.98,6.22,4.57,7.75.79,2.08,1.43,4.2,1.78,10.83l.06,1.16c.22,3.94.39,7.06-.31,15.71-.1,1.3-.38,3.33-.81,5.87-.2,1.13-.43,2.33-.67,3.56l-.38,1.96,1.99-.18c1.28-.11,2.6-.27,3.94-.47,13.1-2,24.94-8.08,34.24-17.61s15.01-21.84,16.24-35.35c.13-1.37.21-2.78.25-4.29l.05-2.09-2,.62c-1.23.38-2.48.73-3.73,1.03-2.89.71-5.87,1.21-8.88,1.49-4.93.45-13.18,1.21-22.62-2.47-1.47-.57-4.2-1.94-7.52-3.76,4.55-3.2,8.2-5.34,10.4-6.1,8.65-2.99,16.13-1.45,20.61-.53,2.46.51,4.86,1.21,7.12,2.08,1.41.54,2.74,1.1,3.93,1.69l2.49,1.22-.34-2.75c-.21-1.71-.5-3.43-.84-5.13-2.48-12.17-8.21-23.38-16.14-31.57-10.79-11.16-24.15-15.21-33.47-16.65-2.03-.31-4.01-.51-5.86-.61h-.12c-.16-.01-.38-.02-.65-.02l-2.67-.03,1.36,2.29c.99,1.67,1.9,3.39,2.7,5.1l.19.4c2.95,6.25,5.74,12.16,4.98,19.57-.63,6.1-5.02,13.77-7.84,18.15-1.84-2.98-3.48-5.78-4.21-7.21-3.16-6.17-3.31-17.8-2.48-25.88.17-1.58,1.08-5.56,2.05-9.77l.57-2.48-2.11.24c-1.47.17-2.79.36-4.05.57-9.54,1.61-23.24,5.92-34.35,17.29-9.15,9.37-14.93,21.16-16.72,34.09-.18,1.28-.32,2.58-.41,3.86l-.16,2.18,2.09-.64c5.97-1.82,11.71-3.05,17.06-3.65,7.65-.86,13.01.28,20.23,2.68.74.25,2.42,1.07,5.78,3.76-3.26,2.72-5.54,4.39-6.78,4.98-9.06,4.33-14.32,3.72-17.81,3.31-5.22-.6-10.17-1.81-15.14-3.71-.96-.36-1.97-.78-3.16-1.3l-2.28-.99.18,2.48c.12,1.65.32,3.32.58,4.94,2.06,12.99,8.13,24.72,17.55,33.93,9.93,9.7,22.48,15.57,36.28,16.98ZM96.93,220.57c5.21,1.98,10.4,3.25,15.86,3.88,3.83.45,9.61,1.13,19.45-3.58,1.69-.81,4.49-2.89,8.81-6.56l1.35-1.15-1.36-1.14c-3.56-2.99-6.29-4.82-8.13-5.45-7.45-2.48-13.36-3.74-21.52-2.82-4.89.55-10.08,1.6-15.47,3.13.06-.5.12-1,.19-1.49,1.7-12.3,7.2-23.5,15.89-32.41,10.55-10.8,23.61-14.9,32.71-16.43.58-.1,1.16-.19,1.78-.28-.86,3.76-1.56,6.9-1.73,8.44-.91,8.9-.66,20.81,2.8,27.56.93,1.81,3.22,5.69,5.58,9.42l1.22,1.93,1.29-1.89c3.26-4.78,8.84-13.92,9.62-21.46.85-8.24-2.25-14.81-5.25-21.16l-.19-.4c-.46-.98-.95-1.95-1.47-2.92,1.15.1,2.33.25,3.53.43,8.86,1.37,21.57,5.21,31.77,15.77,7.53,7.79,12.99,18.47,15.36,30.09.15.74.29,1.48.41,2.22-.53-.22-1.08-.44-1.64-.65-2.41-.92-4.96-1.66-7.6-2.21-4.77-.98-12.75-2.62-22.18.63-3.56,1.23-9.09,4.97-13.11,7.89l-1.89,1.37,2.04,1.15c2.09,1.18,7.25,4.03,9.97,5.09,10.1,3.93,19.13,3.1,23.98,2.66,3.15-.29,6.29-.82,9.31-1.56.62-.15,1.25-.31,1.88-.49-.04.69-.09,1.36-.15,2.02-1.17,12.82-6.49,24.41-15.4,33.53-8.84,9.05-20.1,14.84-32.54,16.74-.6.09-1.19.17-1.77.24.1-.55.2-1.09.3-1.62.31-1.84.71-4.4.85-6.15.71-8.85.53-12.06.31-16.11l-.06-1.15c-.34-6.41-.96-9.07-1.98-11.74-1.15-3-4.95-8.48-6.09-10.09l-1.19-1.68-2.11,2.77c-3.13,4.16-5.14,7.37-5.98,9.54-3.83,9.97-1.69,18.95-.77,22.78,1.16,4.88,3.13,9.49,5.88,13.75-.69-.04-1.38-.1-2.07-.17-13.11-1.34-25.04-6.92-34.48-16.14-8.96-8.75-14.73-19.91-16.69-32.26-.12-.73-.22-1.48-.31-2.22.33.13.65.26.97.38Z"/>
            <path class="cls-1" d="M146.95,219.1l8.54-3.03c.29-.1.52-.34.62-.63l2.83-8.61c.24-.73-.57-1.51-1.28-1.25l-8.54,3.04c-.29.1-.52.34-.62.63l-2.83,8.6c-.12.36-.02.76.25,1.03s.67.35,1.03.23ZM156.4,208.14l-2.04,6.21-6.15,2.18,2.04-6.2,6.16-2.19Z"/>
            <path class="cls-9" d="M197.1,193.32c-1.72-.51-4.27-.58-7.07-.72-8.15-.44-11.98,1.52-15.85,2.53-1.37.36-5.2,2.44-5.88,1.79-.97-.93-.43-1.61.91-4.16,1-1.93,2.24-5.23,2.58-8.38.81-7.68,0-10.18-.61-13.24-.26-1.33-2.05-5.62-1.21-5.52q1.99.27,4.94,1.46c1.73.7,5.04,2.37,7.46,4.49,7.6,6.66,9.64,8.63,12.68,12.86,2.19,3.06,3.77,7.05,4.73,9.34.34.82-.99.05-2.68-.45ZM192.46,190.09c-.58-1.38-1.52-3.78-2.85-5.62-1.82-2.55-3.06-3.73-7.62-7.74-1.46-1.28-3.46-2.29-4.5-2.71q-1.78-.71-2.97-.87c-.5-.07.57,2.51.72,3.31.38,1.85.85,3.35.37,7.98-.2,1.9-.95,3.88-1.55,5.04-.8,1.54-1.12,1.95-.55,2.51.41.39,2.72-.87,3.54-1.08,2.33-.61,4.64-1.79,9.54-1.53,1.68.09,3.21.13,4.26.44,1.01.31,1.81.76,1.61.27Z"/>
            <path class="cls-7" d="M139.7,199.95c-.99.99-1.7.41-4.33-1.06-1.99-1.1-5.42-2.48-8.71-2.92-8.02-1.06-10.66-.28-13.88.28-1.4.24-5.93,1.99-5.8,1.11q.33-2.07,1.64-5.12c.78-1.81,2.61-5.22,4.91-7.7,7.17-7.77,9.29-9.87,13.79-12.93,3.26-2.22,7.48-3.77,9.91-4.71.86-.34.03,1.03-.55,2.79-.58,1.8-.72,4.46-.94,7.37-.67,8.53,1.27,12.58,2.24,16.67.34,1.45,2.42,5.51,1.71,6.2ZM134.69,194.35c.41-.42-.84-2.86-1.04-3.73-.57-2.46-1.75-4.91-1.35-10.04.13-1.76.22-3.35.57-4.43.34-1.06.85-1.88.33-1.68-1.46.57-4,1.49-5.96,2.83-2.71,1.85-3.99,3.11-8.3,7.78-1.38,1.5-2.48,3.56-2.95,4.64q-.79,1.84-.99,3.09c-.09.52,2.65-.53,3.49-.68,1.94-.34,3.53-.81,8.36-.17,1.98.26,4.04,1.08,5.24,1.75,1.59.89,2.01,1.24,2.62.64Z"/>
            <path class="cls-7" d="M182.21,251.49c-2.58,2.5-6.16,4.52-8.05,5.4q-3.21,1.48-5.39,1.87c-.92.17.81-4.68,1.04-6.18.52-3.44,1.28-6.26-.05-14.76-.54-3.48-2.09-7.09-3.31-9.18-1.62-2.76-2.25-3.49-1.23-4.57.73-.74,5.09,1.35,6.63,1.67,4.37.92,8.72,2.89,17.76,1.97,3.09-.32,5.91-.53,7.81-1.19,1.86-.64,3.28-1.57,2.95-.64-.94,2.61-2.46,7.11-4.75,10.64-3.15,4.85-5.31,7.16-13.39,14.97ZM189.57,236.75c1.38-2.12,2.29-4.84,2.86-6.41.21-.55-.66,0-1.78.39-1.13.4-2.84.53-4.7.72-5.43.55-8.05-.63-10.68-1.18-.93-.19-3.55-1.45-3.99-1-.61.64-.23,1.08.74,2.75.74,1.25,1.67,3.42,2,5.52.79,5.12.33,6.81.02,8.88-.13.89-1.19,3.82-.63,3.72q1.32-.23,3.25-1.13c1.13-.53,3.3-1.74,4.85-3.25,4.85-4.71,6.17-6.1,8.05-9.02Z"/>
            <path class="cls-7" d="M134.62,258.23c-2.32-.91-2.66-1.04-5.78-3.16-2.07-1.42-9.03-6.77-11.63-9.08-2.81-2.51-4.61-4.25-7.36-8.71-5.68-9.24-5.72-7.44,1.17-6.54.84.11,5.88.72,13.54-.28,3.15-.4,6.42-1.72,8.33-2.77,2.52-1.39,3.19-1.95,4.14-1,.67.66-1.33,4.55-1.66,5.92-.92,3.9-2.79,7.78-2.16,15.92.22,2.78.35,5.33.9,7.04.54,1.68,1.34,2.99.51,2.67ZM130.46,249.4c-.33-1.04-.41-2.57-.54-4.24-.38-4.9.74-7.23,1.3-9.58.2-.83,1.4-3.16.99-3.56-.57-.57-.97-.24-2.49.6-1.15.63-3.12,1.42-5.01,1.66-4.62.61-6.14.16-7.98-.18-.8-.14-3.41-1.15-3.33-.64q.18,1.19.94,2.94c.45,1.03,1.5,3,2.82,4.43,4.11,4.48,5.33,5.68,7.91,7.45,1.88,1.28,4.3,2.17,5.7,2.71.5.19.01-.59-.31-1.6Z"/>
          </g>
        </g>
        <g>
          <g>
            <path class="cls-3" d="M201.16-8.55l18.32,7.8-18.55,7.24-18.34-7.8,18.57-7.24ZM210.39-.89l-9.3-3.95-9.42,3.67,9.3,3.95,9.42-3.67Z"/>
            <path class="cls-10" d="M201.4-23.76L239.12-.46l-38.41,22.16L162.95-1.62l38.45-22.15ZM231.43-.57l-30.1-18.61L170.63-1.5l30.15,18.61L231.43-.57Z"/>
            <path class="cls-8" d="M201.33-19.18L231.43-.57l-30.65,17.68L170.63-1.49l30.7-17.68ZM224.69-.67l-23.43-14.48-23.89,13.76,23.46,14.49L224.69-.67Z"/>
          </g>
          <g>
            <path class="cls-3" d="M316.18,104.17l-7.52,18.44-7.52-18.44,7.52-18.46,7.52,18.46ZM308.66,113.52l3.81-9.36-3.81-9.36-3.81,9.36,3.81,9.36Z"/>
            <path class="cls-10" d="M331.4,104.18l-22.73,38.07-22.74-38.07,22.74-38.11,22.73,38.11ZM308.67,134.56l18.15-30.38-18.15-30.43-18.15,30.43,18.15,30.38Z"/>
            <path class="cls-8" d="M326.81,104.19l-18.15,30.38-18.15-30.38,18.15-30.43,18.15,30.43ZM308.66,127.83l14.12-23.65-14.12-23.68-14.13,23.68,14.13,23.65Z"/>
          </g>
          <g>
            <path class="cls-5" d="M342.97,35.53c-7.46,7.63-13.74,10.96-23.42,13.12-.97.22-1.76.37-1.59-.62.88-5.38,1.04-8.02,1.02-11.48-.04-7.88-.71-14.56-4.65-21.12-1.87-3.1-8.17-9.8-8.66-9.3,0,0-6.23,3.16-10.23,9.62-5.05,8.15-5.25,17.42-4.4,23.52.64,4.62.75,5.7,2.23,9.42.41,1.03-4.81-.5-5.84-.9-4.51-1.71-13.43-6.38-17.66-10.37-7.47-7-13.58-23.72-13.18-23.41.82.65,9.45,1.53,11.28,1.35,6.07-.6,11.25-1.04,18.06-4,2.09-.89,5.16-3.24,7.9-5.67.25-.22,4.85-3.9,4.71-5.71-.17-2.11-4.58-5.36-5.45-6.02-1.9-1.49-7.13-4.68-15.75-5.71-7.92-.95-13.66-.91-19.7.44-.99.21-3.78,1.79-3.58.81.94-4.59,3.18-8.45,5.35-12.71,3.47-6.84,6.37-9.45,9.62-12.76,3.64-3.68,12.06-9.04,13.99-9.65,0,0,8.19-3.29,11.39-4.09.94-.22-1.36,7.03-1.8,13.45-.47,6.86,1.81,12.07,4.31,16.96.82,1.6,6.01,8.07,10.5,11.86,0,0,.01,0,.02,0,1.89-1.23,2.91-2.16,3.08-2.36,4.15-3.59,5.9-7.57,6.49-8.68,4.4-8.63,4.14-16.36,3.79-20.42-.23-2.56-1.9-6.7-3.64-11.38-.2-.53-.4-1.05-.61-1.56,7.25,1.45,17.93,5.06,26.65,14.06,5.96,6.17,10.57,14.41,13.11,23.5.28,1.02-1.44-.82-2.46-1.05-2.65-.58-4.9-.86-7.98-1.03-5.38-.27-12.09-.83-21.12,3.57,0,0-2.96,1.63-5.89,4.21-.49.43-5.71,5.44-5.76,6.33-.05.79,4.73,5.04,6.7,6.35,3.38,2.25,5.07,3.31,9.32,4.58,9.46,2.87,14.97,2.05,21.38,1.16,1.5-.21,3.91-.32,6.14-.71.94-.17,1.37-.5,1.23.45-1.49,9.91-6.97,17.78-14.93,25.94Z"/>
            <path class="cls-7" d="M347.91,40.74c-9.17,9.39-20.75,15.03-32.8,16.86-1.25.19-2.51.34-3.78.46.24-1.22.46-2.4.66-3.52.41-2.41.71-4.53.82-5.91.75-9.41.48-12.28.24-16.76-.35-6.47-.97-8.79-1.85-11.09-.84-2.19-3.45-6.25-5.81-9.58-.28.37-.56.74-.85,1.11-2.44,3.24-4.79,6.69-5.68,9.02-3.52,9.17-1.69,17.35-.7,21.5,1.58,6.61,4.52,11.76,7.24,15.43-1.7-.02-3.38-.12-5.07-.29-12.63-1.29-24.95-6.7-34.74-16.27-9.31-9.1-14.92-20.57-16.82-32.5-.24-1.57-.43-3.15-.55-4.73.99.43,2.05.87,3.18,1.3,4.16,1.59,9.21,3.03,15.23,3.73,3.77.44,9.16.99,18.29-3.38,1.86-.88,5.26-3.63,8.33-6.24-2.74-2.3-5.64-4.45-7.5-5.07-7.77-2.58-13.12-3.54-20.51-2.7-4.15.47-9.86,1.45-17.02,3.63.09-1.22.22-2.46.39-3.69,1.65-11.91,6.97-23.4,16.02-32.65,10.59-10.84,23.64-15,32.93-16.57,1.39-.24,2.7-.41,3.9-.55-1.03,4.49-1.95,8.48-2.14,10.17-.86,8.3-.69,19.84,2.59,26.24.9,1.76,3.12,5.51,5.41,9.13,3.75-5.5,8.52-13.79,9.2-20.4.81-7.84-2.18-13.97-5.2-20.39-.86-1.85-1.8-3.56-2.72-5.13.31.01.54.01.69.02,1.01.05,2.98.18,5.61.58,7.78,1.2,21.28,4.78,32.04,15.92,7.5,7.75,13.07,18.53,15.47,30.28.34,1.63.6,3.26.81,4.93-1.24-.61-2.56-1.17-3.99-1.71-2.19-.84-4.6-1.56-7.2-2.1-4.47-.92-12.14-2.5-21.03.57-3.16,1.09-8.32,4.51-12.48,7.54,3.52,1.98,7.51,4.09,9.6,4.91,9.41,3.66,17.67,2.99,22.88,2.52,3.17-.3,6.15-.81,8.93-1.51,1.3-.31,2.55-.66,3.75-1.03-.03,1.37-.11,2.73-.24,4.11-1.09,12.01-5.89,23.94-15.54,33.82ZM342.97,35.53c7.97-8.16,13.45-16.03,14.93-25.94.14-.94-.29-.62-1.23-.45-2.24.39-4.64.5-6.14.71-6.42.89-11.92,1.7-21.38-1.16-4.25-1.27-5.95-2.33-9.32-4.58-1.97-1.31-6.76-5.56-6.7-6.35.05-.88,5.27-5.9,5.76-6.33,2.93-2.59,5.89-4.21,5.89-4.21,9.03-4.41,15.73-3.84,21.12-3.57,3.08.17,5.33.45,7.98,1.03,1.02.23,2.74,2.06,2.46,1.05-2.54-9.09-7.15-17.33-13.11-23.5-8.72-9.01-19.4-12.61-26.65-14.06.2.51.41,1.03.61,1.56,1.74,4.69,3.41,8.83,3.64,11.38.35,4.06.61,11.8-3.79,20.42-.59,1.1-2.34,5.08-6.49,8.68-.17.2-1.19,1.13-3.08,2.36,0,0-.01.01-.02,0-4.49-3.79-9.67-10.26-10.5-11.86-2.5-4.89-4.79-10.1-4.31-16.96.44-6.42,2.75-13.67,1.8-13.45-3.19.79-11.39,4.09-11.39,4.09-1.94.61-10.35,5.96-13.99,9.65-3.26,3.31-6.15,5.91-9.62,12.76-2.17,4.25-4.42,8.11-5.35,12.71-.2.98,2.59-.6,3.58-.81,6.04-1.35,11.79-1.39,19.7-.44,8.63,1.03,13.85,4.22,15.75,5.71.86.66,5.27,3.91,5.45,6.02.15,1.81-4.45,5.49-4.71,5.71-2.74,2.44-5.81,4.78-7.9,5.67-6.81,2.95-12,3.39-18.06,4-1.83.18-10.46-.7-11.28-1.35-.4-.31,5.71,16.41,13.18,23.41,4.23,4,13.15,8.66,17.66,10.37,1.04.4,6.25,1.93,5.84.9-1.48-3.72-1.59-4.8-2.23-9.42-.86-6.11-.65-15.37,4.4-23.52,4-6.46,10.23-9.62,10.23-9.62.49-.5,6.79,6.2,8.66,9.3,3.95,6.57,4.62,13.25,4.65,21.12.01,3.46-.15,6.1-1.02,11.48-.17.98.63.83,1.59.62,9.68-2.16,15.96-5.49,23.42-13.12Z"/>
            <path class="cls-6" d="M300.09,60.43c1.78.18,3.56.28,5.29.3l3.03.04-1.81-2.43c-3.42-4.6-5.82-9.71-7.11-15.16-.92-3.86-2.84-11.9.65-21.01.69-1.8,2.49-4.66,5.19-8.3,2.28,3.34,3.98,6.22,4.57,7.75.79,2.08,1.43,4.2,1.78,10.83l.06,1.16c.22,3.94.39,7.06-.31,15.71-.1,1.3-.38,3.33-.81,5.87-.2,1.13-.43,2.33-.67,3.56l-.38,1.96,1.99-.18c1.28-.11,2.6-.27,3.94-.47,13.1-2,24.94-8.08,34.24-17.61s15.01-21.84,16.24-35.35c.13-1.37.21-2.78.25-4.29l.05-2.09-2,.62c-1.23.38-2.48.73-3.73,1.03-2.89.71-5.87,1.21-8.88,1.49-4.93.45-13.18,1.21-22.62-2.47-1.47-.57-4.2-1.94-7.52-3.76,4.55-3.2,8.2-5.34,10.4-6.1,8.65-2.99,16.13-1.45,20.61-.53,2.46.51,4.86,1.21,7.12,2.08,1.41.54,2.74,1.1,3.93,1.69l2.49,1.22-.34-2.75c-.21-1.71-.5-3.43-.84-5.13-2.48-12.17-8.21-23.38-16.14-31.57-10.79-11.16-24.15-15.21-33.47-16.65-2.03-.31-4.01-.51-5.86-.61h-.12c-.16-.01-.38-.02-.65-.02l-2.67-.03,1.36,2.29c.99,1.67,1.9,3.39,2.7,5.1l.19.4c2.95,6.25,5.74,12.16,4.98,19.57-.63,6.1-5.02,13.77-7.84,18.15-1.84-2.98-3.48-5.78-4.21-7.21-3.16-6.17-3.31-17.8-2.48-25.88.17-1.58,1.08-5.56,2.05-9.77l.57-2.48-2.11.24c-1.47.17-2.79.36-4.05.57-9.54,1.61-23.24,5.92-34.35,17.29-9.15,9.37-14.93,21.16-16.72,34.09-.18,1.28-.32,2.58-.41,3.86l-.16,2.18,2.09-.64c5.97-1.82,11.71-3.05,17.06-3.65,7.65-.86,13.01.28,20.23,2.68.74.25,2.42,1.07,5.78,3.76-3.26,2.72-5.54,4.39-6.78,4.98-9.06,4.33-14.32,3.72-17.81,3.31-5.22-.6-10.17-1.81-15.14-3.71-.96-.36-1.97-.78-3.16-1.3l-2.28-.99.18,2.48c.12,1.65.32,3.32.58,4.94,2.06,12.99,8.13,24.72,17.55,33.93,9.93,9.7,22.48,15.57,36.28,16.98ZM249.87,7.2c5.21,1.98,10.4,3.25,15.86,3.88,3.83.45,9.61,1.13,19.45-3.58,1.69-.81,4.49-2.89,8.81-6.56l1.35-1.15-1.36-1.14c-3.56-2.99-6.29-4.82-8.13-5.45-7.45-2.48-13.36-3.74-21.52-2.82-4.89.55-10.08,1.6-15.47,3.13.06-.5.12-1,.19-1.49,1.7-12.3,7.2-23.5,15.89-32.41,10.55-10.8,23.61-14.9,32.71-16.43.58-.1,1.16-.19,1.78-.28-.86,3.76-1.56,6.9-1.73,8.44-.91,8.9-.66,20.81,2.8,27.56.93,1.81,3.22,5.69,5.58,9.42l1.22,1.93,1.29-1.89c3.26-4.78,8.84-13.92,9.62-21.46.85-8.24-2.25-14.81-5.25-21.16l-.19-.4c-.46-.98-.95-1.95-1.47-2.92,1.15.1,2.33.25,3.53.43,8.86,1.37,21.57,5.21,31.77,15.77,7.53,7.79,12.99,18.47,15.36,30.09.15.74.29,1.48.41,2.22-.53-.22-1.08-.44-1.64-.65-2.41-.92-4.96-1.66-7.6-2.21-4.77-.98-12.75-2.62-22.18.63-3.56,1.23-9.09,4.97-13.11,7.89l-1.89,1.37,2.04,1.15c2.09,1.18,7.25,4.03,9.97,5.09,10.1,3.93,19.13,3.1,23.98,2.66,3.15-.29,6.29-.82,9.31-1.56.62-.15,1.25-.31,1.88-.49-.04.69-.09,1.36-.15,2.02-1.17,12.82-6.49,24.41-15.4,33.53-8.84,9.05-20.1,14.84-32.54,16.74-.6.09-1.19.17-1.77.24.1-.55.2-1.09.3-1.62.31-1.84.71-4.4.85-6.15.71-8.85.53-12.06.31-16.11l-.06-1.15c-.34-6.41-.96-9.07-1.98-11.74-1.15-3-4.95-8.48-6.09-10.09l-1.19-1.68-2.11,2.77c-3.13,4.16-5.14,7.37-5.98,9.54-3.83,9.97-1.69,18.95-.77,22.78,1.16,4.88,3.13,9.49,5.88,13.75-.69-.04-1.38-.1-2.07-.17-13.11-1.34-25.04-6.92-34.48-16.14-8.96-8.75-14.73-19.91-16.69-32.26-.12-.73-.22-1.48-.31-2.22.33.13.65.26.97.38Z"/>
            <path class="cls-1" d="M299.9,5.72l8.54-3.03c.29-.1.52-.34.62-.63l2.83-8.61c.24-.73-.57-1.51-1.28-1.25l-8.54,3.04c-.29.1-.52.34-.62.63l-2.83,8.6c-.12.36-.02.76.25,1.03s.67.35,1.03.23ZM309.34-5.24l-2.04,6.21-6.15,2.18,2.04-6.2,6.16-2.19Z"/>
            <path class="cls-7" d="M287.56,44.85c-2.32-.91-2.66-1.04-5.78-3.16-2.07-1.42-9.03-6.77-11.63-9.08-2.81-2.51-4.61-4.25-7.36-8.71-5.68-9.24-5.72-7.44,1.17-6.54.84.11,5.88.72,13.54-.28,3.15-.4,6.42-1.72,8.33-2.77,2.52-1.39,3.19-1.95,4.14-1,.67.66-1.33,4.55-1.66,5.92-.92,3.9-2.79,7.78-2.16,15.92.22,2.78.35,5.33.9,7.04.54,1.68,1.34,2.99.51,2.67ZM283.41,36.02c-.33-1.04-.41-2.57-.54-4.24-.38-4.9.74-7.23,1.3-9.58.2-.83,1.4-3.16.99-3.56-.57-.57-.97-.24-2.49.6-1.15.63-3.12,1.42-5.01,1.66-4.62.61-6.14.16-7.98-.18-.8-.14-3.41-1.15-3.33-.64q.18,1.19.94,2.94c.45,1.03,1.5,3,2.82,4.43,4.11,4.48,5.33,5.68,7.91,7.45,1.88,1.28,4.3,2.17,5.7,2.71.5.19.01-.59-.31-1.6Z"/>
          </g>
        </g>
        <g>
          <g>
            <path class="cls-3" d="M104.81,6.13l-18.4-7.61,18.48-7.43,18.42,7.61-18.5,7.43ZM95.5-1.44l9.34,3.85,9.38-3.77-9.34-3.85-9.38,3.77Z"/>
            <path class="cls-10" d="M104.73,21.34L66.77-1.56l38.18-22.56L142.95-1.21l-38.22,22.55ZM74.46-1.53l30.29,18.29L135.27-1.24l-30.34-18.29L74.46-1.53Z"/>
            <path class="cls-8" d="M104.75,16.76L74.45-1.54l30.46-18.01L135.26-1.25l-30.51,18.01ZM81.19-1.5l23.58,14.23,23.75-14.01-23.61-14.24L81.19-1.5Z"/>
          </g>
          <g>
            <path class="cls-3" d="M10.29,104.17l-7.52,18.44-7.52-18.44,7.52-18.46,7.52,18.46ZM2.77,113.52l3.81-9.36-3.81-9.36-3.81,9.36,3.81,9.36Z"/>
            <path class="cls-10" d="M25.51,104.18L2.78,142.25l-22.74-38.07L2.78,66.07l22.73,38.11ZM2.78,134.56l18.15-30.38L2.78,73.75l-18.15,30.43,18.15,30.38Z"/>
            <path class="cls-8" d="M20.92,104.19l-18.15,30.38-18.15-30.38L2.77,73.76l18.15,30.43ZM2.77,127.83l14.12-23.65-14.12-23.68-14.13,23.68,14.13,23.65Z"/>
          </g>
          <g>
            <path class="cls-5" d="M37.08,35.53c-7.46,7.63-13.74,10.96-23.42,13.12-.97.22-1.76.37-1.59-.62.88-5.38,1.04-8.02,1.02-11.48-.04-7.88-.71-14.56-4.65-21.12C6.58,12.34.27,5.64-.21,6.14c0,0-6.23,3.16-10.23,9.62-5.05,8.15-5.25,17.42-4.4,23.52.64,4.62.75,5.7,2.23,9.42.41,1.03-4.81-.5-5.84-.9-4.51-1.71-13.43-6.38-17.66-10.37-7.47-7-13.58-23.72-13.18-23.41.82.65,9.45,1.53,11.28,1.35,6.07-.6,11.25-1.04,18.06-4,2.09-.89,5.16-3.24,7.9-5.67.25-.22,4.85-3.9,4.71-5.71-.17-2.11-4.58-5.36-5.45-6.02-1.9-1.49-7.13-4.68-15.75-5.71-7.92-.95-13.66-.91-19.7.44-.99.21-3.78,1.79-3.58.81.94-4.59,3.18-8.45,5.35-12.71,3.47-6.84,6.37-9.45,9.62-12.76,3.64-3.68,12.06-9.04,13.99-9.65,0,0,8.19-3.29,11.39-4.09.94-.22-1.36,7.03-1.8,13.45-.47,6.86,1.81,12.07,4.31,16.96.82,1.6,6.01,8.07,10.5,11.86,0,0,.01,0,.02,0,1.89-1.23,2.91-2.16,3.08-2.36,4.15-3.59,5.9-7.57,6.49-8.68,4.4-8.63,4.14-16.36,3.79-20.42-.23-2.56-1.9-6.7-3.64-11.38-.2-.53-.4-1.05-.61-1.56,7.25,1.45,17.93,5.06,26.65,14.06,5.96,6.17,10.57,14.41,13.11,23.5.28,1.02-1.44-.82-2.46-1.05-2.65-.58-4.9-.86-7.98-1.03-5.38-.27-12.09-.83-21.12,3.57,0,0-2.96,1.63-5.89,4.21-.49.43-5.71,5.44-5.76,6.33-.05.79,4.73,5.04,6.7,6.35,3.38,2.25,5.07,3.31,9.32,4.58,9.46,2.87,14.97,2.05,21.38,1.16,1.5-.21,3.91-.32,6.14-.71.94-.17,1.37-.5,1.23.45-1.49,9.91-6.97,17.78-14.93,25.94Z"/>
            <path class="cls-7" d="M42.02,40.74c-9.17,9.39-20.75,15.03-32.8,16.86-1.25.19-2.51.34-3.78.46.24-1.22.46-2.4.66-3.52.41-2.41.71-4.53.82-5.91.75-9.41.48-12.28.24-16.76-.35-6.47-.97-8.79-1.85-11.09-.84-2.19-3.45-6.25-5.81-9.58-.28.37-.56.74-.85,1.11-2.44,3.24-4.79,6.69-5.68,9.02-3.52,9.17-1.69,17.35-.7,21.5,1.58,6.61,4.52,11.76,7.24,15.43-1.7-.02-3.38-.12-5.07-.29-12.63-1.29-24.95-6.7-34.74-16.27-9.31-9.1-14.92-20.57-16.82-32.5-.24-1.57-.43-3.15-.55-4.73.99.43,2.05.87,3.18,1.3,4.16,1.59,9.21,3.03,15.23,3.73,3.77.44,9.16.99,18.29-3.38,1.86-.88,5.26-3.63,8.33-6.24-2.74-2.3-5.64-4.45-7.5-5.07-7.77-2.58-13.12-3.54-20.51-2.7-4.15.47-9.86,1.45-17.02,3.63.09-1.22.22-2.46.39-3.69,1.65-11.91,6.97-23.4,16.02-32.65,10.59-10.84,23.64-15,32.93-16.57,1.39-.24,2.7-.41,3.9-.55-1.03,4.49-1.95,8.48-2.14,10.17-.86,8.3-.69,19.84,2.59,26.24.9,1.76,3.12,5.51,5.41,9.13,3.75-5.5,8.52-13.79,9.2-20.4.81-7.84-2.18-13.97-5.2-20.39-.86-1.85-1.8-3.56-2.72-5.13.31.01.54.01.69.02,1.01.05,2.98.18,5.61.58,7.78,1.2,21.28,4.78,32.04,15.92,7.5,7.75,13.07,18.53,15.47,30.28.34,1.63.6,3.26.81,4.93-1.24-.61-2.56-1.17-3.99-1.71-2.19-.84-4.6-1.56-7.2-2.1-4.47-.92-12.14-2.5-21.03.57-3.16,1.09-8.32,4.51-12.48,7.54,3.52,1.98,7.51,4.09,9.6,4.91,9.41,3.66,17.67,2.99,22.88,2.52,3.17-.3,6.15-.81,8.93-1.51,1.3-.31,2.55-.66,3.75-1.03-.03,1.37-.11,2.73-.24,4.11-1.09,12.01-5.89,23.94-15.54,33.82ZM37.08,35.53c7.97-8.16,13.45-16.03,14.93-25.94.14-.94-.29-.62-1.23-.45-2.24.39-4.64.5-6.14.71-6.42.89-11.92,1.7-21.38-1.16-4.25-1.27-5.95-2.33-9.32-4.58-1.97-1.31-6.76-5.56-6.7-6.35.05-.88,5.27-5.9,5.76-6.33,2.93-2.59,5.89-4.21,5.89-4.21,9.03-4.41,15.73-3.84,21.12-3.57,3.08.17,5.33.45,7.98,1.03,1.02.23,2.74,2.06,2.46,1.05-2.54-9.09-7.15-17.33-13.11-23.5-8.72-9.01-19.4-12.61-26.65-14.06.2.51.41,1.03.61,1.56,1.74,4.69,3.41,8.83,3.64,11.38.35,4.06.61,11.8-3.79,20.42-.59,1.1-2.34,5.08-6.49,8.68-.17.2-1.19,1.13-3.08,2.36,0,0-.01.01-.02,0-4.49-3.79-9.67-10.26-10.5-11.86-2.5-4.89-4.79-10.1-4.31-16.96.44-6.42,2.75-13.67,1.8-13.45-3.19.79-11.39,4.09-11.39,4.09-1.94.61-10.35,5.96-13.99,9.65-3.26,3.31-6.15,5.91-9.62,12.76-2.17,4.25-4.42,8.11-5.35,12.71-.2.98,2.59-.6,3.58-.81,6.04-1.35,11.79-1.39,19.7-.44,8.63,1.03,13.85,4.22,15.75,5.71C-11.93-5.37-7.52-2.13-7.34-.02c.15,1.81-4.45,5.49-4.71,5.71-2.74,2.44-5.81,4.78-7.9,5.67-6.81,2.95-12,3.39-18.06,4-1.83.18-10.46-.7-11.28-1.35-.4-.31,5.71,16.41,13.18,23.41,4.23,4,13.15,8.66,17.66,10.37,1.04.4,6.25,1.93,5.84.9-1.48-3.72-1.59-4.8-2.23-9.42-.86-6.11-.65-15.37,4.4-23.52C-6.44,9.29-.21,6.14-.21,6.14c.49-.5,6.79,6.2,8.66,9.3,3.95,6.57,4.62,13.25,4.65,21.12.01,3.46-.15,6.1-1.02,11.48-.17.98.63.83,1.59.62,9.68-2.16,15.96-5.49,23.42-13.12Z"/>
            <path class="cls-6" d="M-5.81,60.43c1.78.18,3.56.28,5.29.3l3.03.04-1.81-2.43c-3.42-4.6-5.82-9.71-7.11-15.16-.92-3.86-2.84-11.9.65-21.01.69-1.8,2.49-4.66,5.19-8.3,2.28,3.34,3.98,6.22,4.57,7.75.79,2.08,1.43,4.2,1.78,10.83l.06,1.16c.22,3.94.39,7.06-.31,15.71-.1,1.3-.38,3.33-.81,5.87-.2,1.13-.43,2.33-.67,3.56l-.38,1.96,1.99-.18c1.28-.11,2.6-.27,3.94-.47,13.1-2,24.94-8.08,34.24-17.61s15.01-21.84,16.24-35.35c.13-1.37.21-2.78.25-4.29l.05-2.09-2,.62c-1.23.38-2.48.73-3.73,1.03-2.89.71-5.87,1.21-8.88,1.49-4.93.45-13.18,1.21-22.62-2.47-1.47-.57-4.2-1.94-7.52-3.76,4.55-3.2,8.2-5.34,10.4-6.1,8.65-2.99,16.13-1.45,20.61-.53,2.46.51,4.86,1.21,7.12,2.08,1.41.54,2.74,1.1,3.93,1.69l2.49,1.22-.34-2.75c-.21-1.71-.5-3.43-.84-5.13-2.48-12.17-8.21-23.38-16.14-31.57-10.79-11.16-24.15-15.21-33.47-16.65-2.03-.31-4.01-.51-5.86-.61h-.12c-.16-.01-.38-.02-.65-.02l-2.67-.03,1.36,2.29c.99,1.67,1.9,3.39,2.7,5.1l.19.4c2.95,6.25,5.74,12.16,4.98,19.57-.63,6.1-5.02,13.77-7.84,18.15-1.84-2.98-3.48-5.78-4.21-7.21-3.16-6.17-3.31-17.8-2.48-25.88.17-1.58,1.08-5.56,2.05-9.77l.57-2.48-2.11.24c-1.47.17-2.79.36-4.05.57-9.54,1.61-23.24,5.92-34.35,17.29-9.15,9.37-14.93,21.16-16.72,34.09-.18,1.28-.32,2.58-.41,3.86l-.16,2.18,2.09-.64c5.97-1.82,11.71-3.05,17.06-3.65,7.65-.86,13.01.28,20.23,2.68.74.25,2.42,1.07,5.78,3.76-3.26,2.72-5.54,4.39-6.78,4.98-9.06,4.33-14.32,3.72-17.81,3.31-5.22-.6-10.17-1.81-15.14-3.71-.96-.36-1.97-.78-3.16-1.3l-2.28-.99.18,2.48c.12,1.65.32,3.32.58,4.94,2.06,12.99,8.13,24.72,17.55,33.93,9.93,9.7,22.48,15.57,36.28,16.98ZM-56.02,7.2c5.21,1.98,10.4,3.25,15.86,3.88,3.83.45,9.61,1.13,19.45-3.58,1.69-.81,4.49-2.89,8.81-6.56l1.35-1.15-1.36-1.14c-3.56-2.99-6.29-4.82-8.13-5.45-7.45-2.48-13.36-3.74-21.52-2.82-4.89.55-10.08,1.6-15.47,3.13.06-.5.12-1,.19-1.49,1.7-12.3,7.2-23.5,15.89-32.41,10.55-10.8,23.61-14.9,32.71-16.43.58-.1,1.16-.19,1.78-.28-.86,3.76-1.56,6.9-1.73,8.44-.91,8.9-.66,20.81,2.8,27.56.93,1.81,3.22,5.69,5.58,9.42l1.22,1.93,1.29-1.89c3.26-4.78,8.84-13.92,9.62-21.46.85-8.24-2.25-14.81-5.25-21.16l-.19-.4c-.46-.98-.95-1.95-1.47-2.92,1.15.1,2.33.25,3.53.43,8.86,1.37,21.57,5.21,31.77,15.77,7.53,7.79,12.99,18.47,15.36,30.09.15.74.29,1.48.41,2.22-.53-.22-1.08-.44-1.64-.65-2.41-.92-4.96-1.66-7.6-2.21-4.77-.98-12.75-2.62-22.18.63-3.56,1.23-9.09,4.97-13.11,7.89l-1.89,1.37,2.04,1.15c2.09,1.18,7.25,4.03,9.97,5.09,10.1,3.93,19.13,3.1,23.98,2.66,3.15-.29,6.29-.82,9.31-1.56.62-.15,1.25-.31,1.88-.49-.04.69-.09,1.36-.15,2.02-1.17,12.82-6.49,24.41-15.4,33.53-8.84,9.05-20.1,14.84-32.54,16.74-.6.09-1.19.17-1.77.24.1-.55.2-1.09.3-1.62.31-1.84.71-4.4.85-6.15.71-8.85.53-12.06.31-16.11l-.06-1.15c-.34-6.41-.96-9.07-1.98-11.74-1.15-3-4.95-8.48-6.09-10.09l-1.19-1.68-2.11,2.77c-3.13,4.16-5.14,7.37-5.98,9.54-3.83,9.97-1.69,18.95-.77,22.78,1.16,4.88,3.13,9.49,5.88,13.75-.69-.04-1.38-.1-2.07-.17-13.11-1.34-25.04-6.92-34.48-16.14-8.96-8.75-14.73-19.91-16.69-32.26-.12-.73-.22-1.48-.31-2.22.33.13.65.26.97.38Z"/>
            <path class="cls-1" d="M-6,5.72L2.54,2.69c.29-.1.52-.34.62-.63l2.83-8.61c.24-.73-.57-1.51-1.28-1.25L-3.84-4.77c-.29.1-.52.34-.62.63l-2.83,8.6c-.12.36-.02.76.25,1.03s.67.35,1.03.23ZM3.45-5.24L1.41.97l-6.15,2.18L-2.71-3.05l6.16-2.19Z"/>
            <path class="cls-7" d="M29.27,38.11c-2.58,2.5-6.16,4.52-8.05,5.4q-3.21,1.48-5.39,1.87c-.92.17.81-4.68,1.04-6.18.52-3.44,1.28-6.26-.05-14.76-.54-3.48-2.09-7.09-3.31-9.18-1.62-2.76-2.25-3.49-1.23-4.57.73-.74,5.09,1.35,6.63,1.67,4.37.92,8.72,2.89,17.76,1.97,3.09-.32,5.91-.53,7.81-1.19,1.86-.64,3.28-1.57,2.95-.64-.94,2.61-2.46,7.11-4.75,10.64-3.15,4.85-5.31,7.16-13.39,14.97ZM36.63,23.38c1.38-2.12,2.29-4.84,2.86-6.41.21-.55-.66,0-1.78.39-1.13.4-2.84.53-4.7.72-5.43.55-8.05-.63-10.68-1.18-.93-.19-3.55-1.45-3.99-1-.61.64-.23,1.08.74,2.75.74,1.25,1.67,3.42,2,5.52.79,5.12.33,6.81.02,8.88-.13.89-1.19,3.82-.63,3.72q1.32-.23,3.25-1.13c1.13-.53,3.3-1.74,4.85-3.25,4.85-4.71,6.17-6.1,8.05-9.02Z"/>
          </g>
        </g>
      </g>
    </pattern>
  </defs>
  <g id="Calque_1-2" data-name="Calque 1">
    <g>
      <rect class="cls-5" width="842.45" height="594.34"/>
      <rect class="cls-2" x=".09" y="0" width="841.38" height="594.34"/>
    </g>
  </g>
</svg>